<svg width="131" height="60" viewBox="0 0 131 60" fill="none" xmlns="http://www.w3.org/2000/svg">
<rect width="131" height="60" fill="#181818"/>
<mask id="path-2-outside-1_663_2619" maskUnits="userSpaceOnUse" x="31" y="19" width="70" height="23" fill="black">
<rect fill="white" x="31" y="19" width="70" height="23"/>
<path d="M31.8675 20.5H32.9855C35.0135 20.5 36.5735 21.0373 37.6655 22.112C38.7748 23.1867 39.3295 24.7207 39.3295 26.714C39.3295 27.858 39.0521 28.9067 38.4975 29.86C37.9601 30.8133 37.2235 31.5673 36.2875 32.122C35.3515 32.6593 34.3201 32.928 33.1935 32.928H33.0115L39.7195 40H38.6015L32.6995 33.812V40H31.8675V20.5ZM33.1675 32.174C34.1555 32.174 35.0568 31.9313 35.8715 31.446C36.6861 30.9607 37.3275 30.3107 37.7955 29.496C38.2635 28.664 38.4975 27.7453 38.4975 26.74C38.4975 24.9893 38.0208 23.6373 37.0675 22.684C36.1315 21.7307 34.7881 21.254 33.0375 21.254H32.6995V32.174H33.1675ZM62.1077 30.172C62.1077 31.8013 61.761 33.3267 61.0677 34.748C60.3744 36.1693 59.421 37.3653 58.2077 38.336L60.2097 40.312H59.0657L57.5577 38.804C55.8764 39.948 54.013 40.52 51.9677 40.52C50.1477 40.52 48.4577 40.0433 46.8977 39.09C45.3377 38.1367 44.0984 36.8713 43.1797 35.294C42.2784 33.6993 41.8277 31.992 41.8277 30.172C41.8277 28.3693 42.287 26.688 43.2057 25.128C44.1244 23.5507 45.3637 22.3027 46.9237 21.384C48.4837 20.448 50.1737 19.98 51.9937 19.98C53.831 19.98 55.521 20.4393 57.0637 21.358C58.6064 22.2767 59.8284 23.5247 60.7297 25.102C61.6484 26.662 62.1077 28.352 62.1077 30.172ZM51.9677 39.766C53.7704 39.766 55.443 39.2547 56.9857 38.232L52.3837 33.682H53.5017L57.6357 37.764C58.745 36.8627 59.6204 35.7533 60.2617 34.436C60.9204 33.1187 61.2497 31.7147 61.2497 30.224C61.2497 28.5253 60.8337 26.948 60.0017 25.492C59.1697 24.036 58.043 22.8833 56.6217 22.034C55.2004 21.1673 53.6577 20.734 51.9937 20.734C50.3124 20.734 48.761 21.1673 47.3397 22.034C45.9184 22.8833 44.783 24.036 43.9337 25.492C43.1017 26.948 42.6857 28.5253 42.6857 30.224C42.6857 31.94 43.1017 33.5347 43.9337 35.008C44.783 36.464 45.9184 37.6253 47.3397 38.492C48.761 39.3413 50.3037 39.766 51.9677 39.766ZM63.9283 39.194H71.9363V40H63.9283V39.194ZM74.7807 20.5H75.6387V40H74.7807V20.5ZM83.9631 40.364C81.7965 40.364 80.1151 39.4713 78.9191 37.686V36.282C79.3871 37.322 80.0631 38.1367 80.9471 38.726C81.8485 39.3153 82.9231 39.61 84.1711 39.61C85.0378 39.61 85.8351 39.4193 86.5631 39.038C87.3085 38.6567 87.8978 38.1193 88.3311 37.426C88.7645 36.7327 88.9811 35.9353 88.9811 35.034C88.9811 34.2193 88.8425 33.5173 88.5651 32.928C88.2878 32.3387 87.8285 31.7753 87.1871 31.238C86.5458 30.6833 85.6185 30.0333 84.4051 29.288L83.5731 28.768C82.8105 28.3 82.1951 27.884 81.7271 27.52C81.2591 27.156 80.8518 26.7313 80.5051 26.246C80.0545 25.57 79.8291 24.79 79.8291 23.906C79.8291 22.7273 80.2105 21.8087 80.9731 21.15C81.7358 20.4913 82.7065 20.162 83.8851 20.162C85.4798 20.162 86.7451 20.7513 87.6811 21.93V23.256C87.2825 22.528 86.7365 21.956 86.0431 21.54C85.3498 21.124 84.5871 20.916 83.7551 20.916C82.8885 20.916 82.1605 21.1847 81.5711 21.722C80.9818 22.2593 80.6871 22.9787 80.6871 23.88C80.6871 24.764 80.9558 25.5267 81.4931 26.168C82.0478 26.792 82.9751 27.4767 84.2751 28.222C85.8698 29.158 87.1091 30.0073 87.9931 30.77C88.6171 31.342 89.0678 31.9747 89.3451 32.668C89.6398 33.3613 89.7871 34.1327 89.7871 34.982C89.7871 36.0567 89.5358 37.0013 89.0331 37.816C88.5305 38.6307 87.8371 39.2633 86.9531 39.714C86.0691 40.1473 85.0725 40.364 83.9631 40.364ZM92.9059 20.5H93.7639C95.8093 20.5 97.4039 21.046 98.5479 22.138C99.6919 23.2127 100.264 24.66 100.264 26.48C100.264 27.7453 99.9866 28.872 99.4319 29.86C98.8773 30.8307 98.1233 31.5847 97.1699 32.122C96.2166 32.642 95.1506 32.902 93.9719 32.902H93.7639V40H92.9059V20.5ZM94.0239 32.148C95.6013 32.148 96.8926 31.6627 97.8979 30.692C98.9033 29.704 99.4059 28.3173 99.4059 26.532C99.4059 24.8333 98.9293 23.5333 97.9759 22.632C97.0399 21.7133 95.7053 21.254 93.9719 21.254H93.7639V32.148H94.0239Z"/>
</mask>
<path d="M31.8675 20.5H32.9855C35.0135 20.5 36.5735 21.0373 37.6655 22.112C38.7748 23.1867 39.3295 24.7207 39.3295 26.714C39.3295 27.858 39.0521 28.9067 38.4975 29.86C37.9601 30.8133 37.2235 31.5673 36.2875 32.122C35.3515 32.6593 34.3201 32.928 33.1935 32.928H33.0115L39.7195 40H38.6015L32.6995 33.812V40H31.8675V20.5ZM33.1675 32.174C34.1555 32.174 35.0568 31.9313 35.8715 31.446C36.6861 30.9607 37.3275 30.3107 37.7955 29.496C38.2635 28.664 38.4975 27.7453 38.4975 26.74C38.4975 24.9893 38.0208 23.6373 37.0675 22.684C36.1315 21.7307 34.7881 21.254 33.0375 21.254H32.6995V32.174H33.1675ZM62.1077 30.172C62.1077 31.8013 61.761 33.3267 61.0677 34.748C60.3744 36.1693 59.421 37.3653 58.2077 38.336L60.2097 40.312H59.0657L57.5577 38.804C55.8764 39.948 54.013 40.52 51.9677 40.52C50.1477 40.52 48.4577 40.0433 46.8977 39.09C45.3377 38.1367 44.0984 36.8713 43.1797 35.294C42.2784 33.6993 41.8277 31.992 41.8277 30.172C41.8277 28.3693 42.287 26.688 43.2057 25.128C44.1244 23.5507 45.3637 22.3027 46.9237 21.384C48.4837 20.448 50.1737 19.98 51.9937 19.98C53.831 19.98 55.521 20.4393 57.0637 21.358C58.6064 22.2767 59.8284 23.5247 60.7297 25.102C61.6484 26.662 62.1077 28.352 62.1077 30.172ZM51.9677 39.766C53.7704 39.766 55.443 39.2547 56.9857 38.232L52.3837 33.682H53.5017L57.6357 37.764C58.745 36.8627 59.6204 35.7533 60.2617 34.436C60.9204 33.1187 61.2497 31.7147 61.2497 30.224C61.2497 28.5253 60.8337 26.948 60.0017 25.492C59.1697 24.036 58.043 22.8833 56.6217 22.034C55.2004 21.1673 53.6577 20.734 51.9937 20.734C50.3124 20.734 48.761 21.1673 47.3397 22.034C45.9184 22.8833 44.783 24.036 43.9337 25.492C43.1017 26.948 42.6857 28.5253 42.6857 30.224C42.6857 31.94 43.1017 33.5347 43.9337 35.008C44.783 36.464 45.9184 37.6253 47.3397 38.492C48.761 39.3413 50.3037 39.766 51.9677 39.766ZM63.9283 39.194H71.9363V40H63.9283V39.194ZM74.7807 20.5H75.6387V40H74.7807V20.5ZM83.9631 40.364C81.7965 40.364 80.1151 39.4713 78.9191 37.686V36.282C79.3871 37.322 80.0631 38.1367 80.9471 38.726C81.8485 39.3153 82.9231 39.61 84.1711 39.61C85.0378 39.61 85.8351 39.4193 86.5631 39.038C87.3085 38.6567 87.8978 38.1193 88.3311 37.426C88.7645 36.7327 88.9811 35.9353 88.9811 35.034C88.9811 34.2193 88.8425 33.5173 88.5651 32.928C88.2878 32.3387 87.8285 31.7753 87.1871 31.238C86.5458 30.6833 85.6185 30.0333 84.4051 29.288L83.5731 28.768C82.8105 28.3 82.1951 27.884 81.7271 27.52C81.2591 27.156 80.8518 26.7313 80.5051 26.246C80.0545 25.57 79.8291 24.79 79.8291 23.906C79.8291 22.7273 80.2105 21.8087 80.9731 21.15C81.7358 20.4913 82.7065 20.162 83.8851 20.162C85.4798 20.162 86.7451 20.7513 87.6811 21.93V23.256C87.2825 22.528 86.7365 21.956 86.0431 21.54C85.3498 21.124 84.5871 20.916 83.7551 20.916C82.8885 20.916 82.1605 21.1847 81.5711 21.722C80.9818 22.2593 80.6871 22.9787 80.6871 23.88C80.6871 24.764 80.9558 25.5267 81.4931 26.168C82.0478 26.792 82.9751 27.4767 84.2751 28.222C85.8698 29.158 87.1091 30.0073 87.9931 30.77C88.6171 31.342 89.0678 31.9747 89.3451 32.668C89.6398 33.3613 89.7871 34.1327 89.7871 34.982C89.7871 36.0567 89.5358 37.0013 89.0331 37.816C88.5305 38.6307 87.8371 39.2633 86.9531 39.714C86.0691 40.1473 85.0725 40.364 83.9631 40.364ZM92.9059 20.5H93.7639C95.8093 20.5 97.4039 21.046 98.5479 22.138C99.6919 23.2127 100.264 24.66 100.264 26.48C100.264 27.7453 99.9866 28.872 99.4319 29.86C98.8773 30.8307 98.1233 31.5847 97.1699 32.122C96.2166 32.642 95.1506 32.902 93.9719 32.902H93.7639V40H92.9059V20.5ZM94.0239 32.148C95.6013 32.148 96.8926 31.6627 97.8979 30.692C98.9033 29.704 99.4059 28.3173 99.4059 26.532C99.4059 24.8333 98.9293 23.5333 97.9759 22.632C97.0399 21.7133 95.7053 21.254 93.9719 21.254H93.7639V32.148H94.0239Z" fill="#34CDFF"/>
<path d="M31.8675 20.5V20H31.3675V20.5H31.8675ZM37.6655 22.112L37.3148 22.4684L37.3176 22.4711L37.6655 22.112ZM38.4975 29.86L38.0653 29.6085L38.0619 29.6145L38.4975 29.86ZM36.2875 32.122L36.5364 32.5557L36.5424 32.5521L36.2875 32.122ZM33.0115 32.928V32.428H31.8481L32.6487 33.2721L33.0115 32.928ZM39.7195 40V40.5H40.8829L40.0822 39.6559L39.7195 40ZM38.6015 40L38.2397 40.3451L38.3874 40.5H38.6015V40ZM32.6995 33.812L33.0613 33.4669L32.1995 32.5633V33.812H32.6995ZM32.6995 40V40.5H33.1995V40H32.6995ZM31.8675 40H31.3675V40.5H31.8675V40ZM35.8715 31.446L36.1274 31.8756L36.1274 31.8756L35.8715 31.446ZM37.7955 29.496L38.229 29.7451L38.2313 29.7411L37.7955 29.496ZM37.0675 22.684L36.7107 23.0343L36.7139 23.0376L37.0675 22.684ZM32.6995 21.254V20.754H32.1995V21.254H32.6995ZM32.6995 32.174H32.1995V32.674H32.6995V32.174ZM31.8675 21H32.9855V20H31.8675V21ZM32.9855 21C34.9261 21 36.3435 21.5125 37.3148 22.4684L38.0162 21.7556C36.8035 20.5621 35.1008 20 32.9855 20V21ZM37.3176 22.4711C38.3036 23.4263 38.8295 24.8147 38.8295 26.714H39.8295C39.8295 24.6266 39.2461 22.947 38.0134 21.7529L37.3176 22.4711ZM38.8295 26.714C38.8295 27.7731 38.5739 28.7345 38.0653 29.6086L38.9297 30.1114C39.5304 29.0788 39.8295 27.9429 39.8295 26.714H38.8295ZM38.0619 29.6145C37.5673 30.492 36.8928 31.1821 36.0326 31.6919L36.5424 32.5521C37.5542 31.9525 38.353 31.1347 38.9331 30.1055L38.0619 29.6145ZM36.0385 31.6884C35.1817 32.1803 34.2368 32.428 33.1935 32.428V33.428C34.4035 33.428 35.5213 33.1384 36.5364 32.5556L36.0385 31.6884ZM33.1935 32.428H33.0115V33.428H33.1935V32.428ZM32.6487 33.2721L39.3567 40.3441L40.0822 39.6559L33.3742 32.5839L32.6487 33.2721ZM39.7195 39.5H38.6015V40.5H39.7195V39.5ZM38.9633 39.6549L33.0613 33.4669L32.3377 34.1571L38.2397 40.3451L38.9633 39.6549ZM32.1995 33.812V40H33.1995V33.812H32.1995ZM32.6995 39.5H31.8675V40.5H32.6995V39.5ZM32.3675 40V20.5H31.3675V40H32.3675ZM33.1675 32.674C34.2416 32.674 35.232 32.409 36.1274 31.8756L35.6156 31.0164C34.8816 31.4537 34.0693 31.674 33.1675 31.674V32.674ZM36.1274 31.8756C37.015 31.3467 37.7179 30.6349 38.229 29.7451L37.3619 29.2469C36.9371 29.9865 36.3572 30.5746 35.6156 31.0164L36.1274 31.8756ZM38.2313 29.7411C38.7436 28.8303 38.9975 27.8265 38.9975 26.74H37.9975C37.9975 27.6642 37.7833 28.4977 37.3597 29.2509L38.2313 29.7411ZM38.9975 26.74C38.9975 24.898 38.4938 23.4032 37.421 22.3304L36.7139 23.0376C37.5479 23.8715 37.9975 25.0807 37.9975 26.74H38.9975ZM37.4243 22.3337C36.3676 21.2575 34.8789 20.754 33.0375 20.754V21.754C34.6974 21.754 35.8953 22.2038 36.7107 23.0343L37.4243 22.3337ZM33.0375 20.754H32.6995V21.754H33.0375V20.754ZM32.1995 21.254V32.174H33.1995V21.254H32.1995ZM32.6995 32.674H33.1675V31.674H32.6995V32.674ZM58.2077 38.336L57.8954 37.9456L57.4563 38.2968L57.8565 38.6919L58.2077 38.336ZM60.2097 40.312V40.812H61.4281L60.5609 39.9561L60.2097 40.312ZM59.0657 40.312L58.7122 40.6656L58.8586 40.812H59.0657V40.312ZM57.5577 38.804L57.9113 38.4504L57.6186 38.1578L57.2764 38.3906L57.5577 38.804ZM46.8977 39.09L46.637 39.5166L46.8977 39.09ZM43.1797 35.294L42.7444 35.54L42.7476 35.5456L43.1797 35.294ZM43.2057 25.128L43.6366 25.3817L43.6378 25.3796L43.2057 25.128ZM46.9237 21.384L47.1774 21.8149L47.181 21.8127L46.9237 21.384ZM57.0637 21.358L56.8079 21.7876L56.8079 21.7876L57.0637 21.358ZM60.7297 25.102L60.2956 25.3501L60.2989 25.3557L60.7297 25.102ZM56.9857 38.232L57.262 38.6487L57.7746 38.3089L57.3373 37.8764L56.9857 38.232ZM52.3837 33.682V33.182H51.1668L52.0322 34.0376L52.3837 33.682ZM53.5017 33.682L53.853 33.3262L53.707 33.182H53.5017V33.682ZM57.6357 37.764L57.2844 38.1198L57.6032 38.4346L57.951 38.1521L57.6357 37.764ZM60.2617 34.436L59.8145 34.2124L59.8122 34.2171L60.2617 34.436ZM60.0017 25.492L59.5676 25.7401L59.5676 25.7401L60.0017 25.492ZM56.6217 22.034L56.3614 22.4609L56.3652 22.4632L56.6217 22.034ZM47.3397 22.034L47.5962 22.4632L47.6 22.4609L47.3397 22.034ZM43.9337 25.492L43.5018 25.2401L43.4996 25.2439L43.9337 25.492ZM43.9337 35.008L43.4983 35.2539L43.5018 35.2599L43.9337 35.008ZM47.3397 38.492L47.0794 38.9189L47.0832 38.9212L47.3397 38.492ZM61.6077 30.172C61.6077 31.7277 61.2773 33.1778 60.6183 34.5288L61.5171 34.9672C62.2448 33.4755 62.6077 31.8749 62.6077 30.172H61.6077ZM60.6183 34.5288C59.9568 35.8848 59.0499 37.022 57.8954 37.9456L58.5201 38.7264C59.7922 37.7087 60.7919 36.4538 61.5171 34.9672L60.6183 34.5288ZM57.8565 38.6919L59.8585 40.6679L60.5609 39.9561L58.5589 37.9801L57.8565 38.6919ZM60.2097 39.812H59.0657V40.812H60.2097V39.812ZM59.4193 39.9584L57.9113 38.4504L57.2042 39.1576L58.7122 40.6656L59.4193 39.9584ZM57.2764 38.3906C55.6786 39.4778 53.9133 40.02 51.9677 40.02V41.02C54.1128 41.02 56.0742 40.4182 57.839 39.2174L57.2764 38.3906ZM51.9677 40.02C50.2402 40.02 48.6403 39.5689 47.1584 38.6634L46.637 39.5166C48.2751 40.5177 50.0553 41.02 51.9677 41.02V40.02ZM47.1584 38.6634C45.6691 37.7532 44.4886 36.5479 43.6118 35.0424L42.7476 35.5456C43.7081 37.1947 45.0064 38.5202 46.637 39.5166L47.1584 38.6634ZM43.615 35.048C42.7558 33.5279 42.3277 31.9052 42.3277 30.172H41.3277C41.3277 32.0788 41.801 33.8708 42.7444 35.54L43.615 35.048ZM42.3277 30.172C42.3277 28.459 42.763 26.8652 43.6366 25.3817L42.7749 24.8743C41.8111 26.5108 41.3277 28.2797 41.3277 30.172H42.3277ZM43.6378 25.3796C44.5137 23.8757 45.6919 22.6897 47.1774 21.8148L46.67 20.9532C45.0355 21.9157 43.7351 23.2256 42.7736 24.8764L43.6378 25.3796ZM47.181 21.8127C48.6632 20.9234 50.2643 20.48 51.9937 20.48V19.48C50.0831 19.48 48.3042 19.9726 46.6665 20.9553L47.181 21.8127ZM51.9937 20.48C53.7432 20.48 55.3445 20.9161 56.8079 21.7876L57.3195 20.9284C55.6976 19.9625 53.9189 19.48 51.9937 19.48V20.48ZM56.8079 21.7876C58.2755 22.6616 59.4365 23.8467 60.2956 25.3501L61.1638 24.8539C60.2202 23.2027 58.9372 21.8917 57.3195 20.9284L56.8079 21.7876ZM60.2989 25.3557C61.172 26.8384 61.6077 28.4407 61.6077 30.172H62.6077C62.6077 28.2633 62.1248 26.4856 61.1606 24.8483L60.2989 25.3557ZM51.9677 40.266C53.8714 40.266 55.6397 39.7242 57.262 38.6487L56.7094 37.8153C55.2464 38.7852 53.6694 39.266 51.9677 39.266V40.266ZM57.3373 37.8764L52.7353 33.3264L52.0322 34.0376L56.6342 38.5876L57.3373 37.8764ZM52.3837 34.182H53.5017V33.182H52.3837V34.182ZM53.1504 34.0378L57.2844 38.1198L57.987 37.4082L53.853 33.3262L53.1504 34.0378ZM57.951 38.1521C59.1183 37.2036 60.0389 36.036 60.7113 34.6549L59.8122 34.2171C59.2019 35.4707 58.3718 36.5217 57.3204 37.3759L57.951 38.1521ZM60.7089 34.6596C61.4027 33.272 61.7497 31.7913 61.7497 30.224H60.7497C60.7497 31.638 60.438 32.9654 59.8145 34.2124L60.7089 34.6596ZM61.7497 30.224C61.7497 28.4395 61.3116 26.7765 60.4358 25.2439L59.5676 25.7401C60.3558 27.1195 60.7497 28.6112 60.7497 30.224H61.7497ZM60.4358 25.2439C59.5617 23.7143 58.3743 22.4988 56.8782 21.6048L56.3652 22.4632C57.7118 23.2679 58.7777 24.3577 59.5676 25.7401L60.4358 25.2439ZM56.882 21.6071C55.3823 20.6926 53.7496 20.234 51.9937 20.234V21.234C53.5658 21.234 55.0184 21.642 56.3614 22.4609L56.882 21.6071ZM51.9937 20.234C50.2215 20.234 48.58 20.6921 47.0794 21.6071L47.6 22.4609C48.9421 21.6425 50.4032 21.234 51.9937 21.234V20.234ZM47.0832 21.6048C45.588 22.4983 44.3929 23.7125 43.5018 25.2401L44.3656 25.7439C45.1732 24.3595 46.2487 23.2684 47.5962 22.4632L47.0832 21.6048ZM43.4996 25.2439C42.6238 26.7765 42.1857 28.4395 42.1857 30.224H43.1857C43.1857 28.6112 43.5796 27.1195 44.3678 25.7401L43.4996 25.2439ZM42.1857 30.224C42.1857 32.0249 42.6233 33.7044 43.4983 35.2539L44.3691 34.7621C43.5801 33.3649 43.1857 31.8551 43.1857 30.224H42.1857ZM43.5018 35.2599C44.3924 36.7866 45.5863 38.0085 47.0794 38.9189L47.6 38.0651C46.2504 37.2422 45.1737 36.1414 44.3656 34.7561L43.5018 35.2599ZM47.0832 38.9212C48.5825 39.8171 50.2139 40.266 51.9677 40.266V39.266C50.3936 39.266 48.9396 38.8656 47.5962 38.0628L47.0832 38.9212ZM63.9283 39.194V38.694H63.4283V39.194H63.9283ZM71.9363 39.194H72.4363V38.694H71.9363V39.194ZM71.9363 40V40.5H72.4363V40H71.9363ZM63.9283 40H63.4283V40.5H63.9283V40ZM63.9283 39.694H71.9363V38.694H63.9283V39.694ZM71.4363 39.194V40H72.4363V39.194H71.4363ZM71.9363 39.5H63.9283V40.5H71.9363V39.5ZM64.4283 40V39.194H63.4283V40H64.4283ZM74.7807 20.5V20H74.2807V20.5H74.7807ZM75.6387 20.5H76.1387V20H75.6387V20.5ZM75.6387 40V40.5H76.1387V40H75.6387ZM74.7807 40H74.2807V40.5H74.7807V40ZM74.7807 21H75.6387V20H74.7807V21ZM75.1387 20.5V40H76.1387V20.5H75.1387ZM75.6387 39.5H74.7807V40.5H75.6387V39.5ZM75.2807 40V20.5H74.2807V40H75.2807ZM78.9191 37.686H78.4191V37.838L78.5037 37.9643L78.9191 37.686ZM78.9191 36.282L79.3751 36.0768L78.4191 36.282H78.9191ZM80.9471 38.726L80.6698 39.142L80.6735 39.1445L80.9471 38.726ZM86.5631 39.038L86.3354 38.5929L86.3311 38.5951L86.5631 39.038ZM88.3311 37.426L88.7551 37.691L88.7551 37.691L88.3311 37.426ZM88.5651 32.928L88.1127 33.1409L88.5651 32.928ZM87.1871 31.238L86.86 31.6162L86.866 31.6213L87.1871 31.238ZM84.4051 29.288L84.1401 29.712L84.1434 29.714L84.4051 29.288ZM83.5731 28.768L83.8382 28.344L83.8347 28.3418L83.5731 28.768ZM81.7271 27.52L81.4202 27.9147L81.4202 27.9147L81.7271 27.52ZM80.5051 26.246L80.0891 26.5233L80.0936 26.5301L80.0983 26.5366L80.5051 26.246ZM87.6811 21.93H88.1811V21.7556L88.0727 21.6191L87.6811 21.93ZM87.6811 23.256L87.2426 23.4962L88.1811 23.256H87.6811ZM81.5711 21.722L81.908 22.0915L81.908 22.0915L81.5711 21.722ZM81.4931 26.168L81.1099 26.4891L81.1146 26.4947L81.1194 26.5002L81.4931 26.168ZM84.2751 28.222L84.5283 27.7908L84.5238 27.7882L84.2751 28.222ZM87.9931 30.77L88.331 30.4014L88.3255 30.3963L88.3198 30.3914L87.9931 30.77ZM89.3451 32.668L88.8808 32.8537L88.885 32.8636L89.3451 32.668ZM89.0331 37.816L89.4587 38.0786L89.4587 38.0786L89.0331 37.816ZM86.9531 39.714L87.1733 40.163L87.1802 40.1595L86.9531 39.714ZM83.9631 39.864C81.9616 39.864 80.4368 39.0531 79.3346 37.4077L78.5037 37.9643C79.7935 39.8896 81.6314 40.864 83.9631 40.864V39.864ZM79.4191 37.686V36.282H78.4191V37.686H79.4191ZM78.4632 36.4872C78.9668 37.6063 79.7019 38.4967 80.6698 39.142L81.2245 38.31C80.4244 37.7766 79.8075 37.0377 79.3751 36.0768L78.4632 36.4872ZM80.6735 39.1445C81.6685 39.795 82.8418 40.11 84.1711 40.11V39.11C83.0045 39.11 82.0285 38.8356 81.2208 38.3075L80.6735 39.1445ZM84.1711 40.11C85.1141 40.11 85.9916 39.9018 86.7952 39.4809L86.3311 38.5951C85.6787 38.9369 84.9615 39.11 84.1711 39.11V40.11ZM86.7909 39.4831C87.6147 39.0616 88.2727 38.4629 88.7551 37.691L87.9071 37.161C87.5229 37.7757 87.0023 38.2517 86.3354 38.5929L86.7909 39.4831ZM88.7551 37.691C89.2432 36.9102 89.4811 36.0191 89.4811 35.034H88.4811C88.4811 35.8515 88.2858 36.5551 87.9071 37.161L88.7551 37.691ZM89.4811 35.034C89.4811 34.1637 89.3331 33.3856 89.0176 32.7151L88.1127 33.1409C88.3519 33.6491 88.4811 34.275 88.4811 35.034H89.4811ZM89.0176 32.7151C88.7019 32.0442 88.19 31.4259 87.5083 30.8547L86.866 31.6213C87.467 32.1248 87.8738 32.6331 88.1127 33.1409L89.0176 32.7151ZM87.5142 30.8598C86.8433 30.2796 85.89 29.6133 84.6669 28.862L84.1434 29.714C85.347 30.4533 86.2483 31.0871 86.8601 31.6162L87.5142 30.8598ZM84.6701 28.864L83.8381 28.344L83.3081 29.192L84.1401 29.712L84.6701 28.864ZM83.8347 28.3418C83.0807 27.8792 82.4822 27.4739 82.0341 27.1253L81.4202 27.9147C81.9081 28.2941 82.5403 28.7208 83.3116 29.1942L83.8347 28.3418ZM82.0341 27.1253C81.6045 26.7912 81.2308 26.4016 80.912 25.9554L80.0983 26.5366C80.4729 27.061 80.9138 27.5208 81.4202 27.9147L82.0341 27.1253ZM80.9212 25.9686C80.5301 25.382 80.3291 24.7004 80.3291 23.906H79.3291C79.3291 24.8796 79.5789 25.758 80.0891 26.5233L80.9212 25.9686ZM80.3291 23.906C80.3291 22.8454 80.6663 22.0756 81.3 21.5284L80.6463 20.7716C79.7546 21.5417 79.3291 22.6093 79.3291 23.906H80.3291ZM81.3 21.5284C81.9568 20.9612 82.805 20.662 83.8851 20.662V19.662C82.608 19.662 81.5149 20.0215 80.6463 20.7716L81.3 21.5284ZM83.8851 20.662C85.3378 20.662 86.4548 21.1897 87.2896 22.2409L88.0727 21.6191C87.0355 20.313 85.6219 19.662 83.8851 19.662V20.662ZM87.1811 21.93V23.256H88.1811V21.93H87.1811ZM88.1197 23.0158C87.6796 22.2122 87.0719 21.5742 86.3004 21.1113L85.7859 21.9687C86.401 22.3378 86.8854 22.8438 87.2426 23.4962L88.1197 23.0158ZM86.3004 21.1113C85.527 20.6472 84.675 20.416 83.7551 20.416V21.416C84.4993 21.416 85.1726 21.6008 85.7859 21.9687L86.3004 21.1113ZM83.7551 20.416C82.7756 20.416 81.924 20.7236 81.2343 21.3525L81.908 22.0915C82.3969 21.6457 83.0014 21.416 83.7551 21.416V20.416ZM81.2343 21.3525C80.5269 21.9974 80.1871 22.8583 80.1871 23.88H81.1871C81.1871 23.099 81.4367 22.5212 81.908 22.0915L81.2343 21.3525ZM80.1871 23.88C80.1871 24.8742 80.4927 25.7524 81.1099 26.4891L81.8764 25.8469C81.419 25.3009 81.1871 24.6538 81.1871 23.88H80.1871ZM81.1194 26.5002C81.7279 27.1847 82.7106 27.9013 84.0265 28.6558L84.5238 27.7882C83.2397 27.052 82.3678 26.3993 81.8669 25.8358L81.1194 26.5002ZM84.022 28.6532C85.6038 29.5817 86.8146 30.4136 87.6665 31.1486L88.3198 30.3914C87.4037 29.6011 86.1358 28.7343 84.5282 27.7908L84.022 28.6532ZM87.6553 31.1386C88.2314 31.6667 88.635 32.2388 88.8809 32.8537L89.8094 32.4823C89.5007 31.7105 89.0029 31.0173 88.331 30.4014L87.6553 31.1386ZM88.885 32.8636C89.1502 33.4876 89.2871 34.1913 89.2871 34.982H90.2871C90.2871 34.074 90.1294 33.235 89.8053 32.4724L88.885 32.8636ZM89.2871 34.982C89.2871 35.9756 89.0558 36.8271 88.6076 37.5534L89.4587 38.0786C90.0158 37.1756 90.2871 36.1377 90.2871 34.982H89.2871ZM88.6076 37.5534C88.1549 38.2872 87.5315 38.8579 86.7261 39.2685L87.1802 40.1595C88.1428 39.6688 88.9061 38.9742 89.4587 38.0786L88.6076 37.5534ZM86.7331 39.265C85.9258 39.6608 85.0059 39.864 83.9631 39.864V40.864C85.139 40.864 86.2125 40.6339 87.1732 40.163L86.7331 39.265ZM92.9059 20.5V20H92.4059V20.5H92.9059ZM98.5479 22.138L98.2027 22.4997L98.2056 22.5024L98.5479 22.138ZM99.4319 29.86L99.8661 30.1081L99.8679 30.1048L99.4319 29.86ZM97.1699 32.122L97.4094 32.561L97.4154 32.5576L97.1699 32.122ZM93.7639 32.902V32.402H93.2639V32.902H93.7639ZM93.7639 40V40.5H94.2639V40H93.7639ZM92.9059 40H92.4059V40.5H92.9059V40ZM97.8979 30.692L98.2452 31.0517L98.2484 31.0486L97.8979 30.692ZM97.9759 22.632L97.6256 22.9889L97.6324 22.9953L97.9759 22.632ZM93.7639 21.254V20.754H93.2639V21.254H93.7639ZM93.7639 32.148H93.2639V32.648H93.7639V32.148ZM92.9059 21H93.7639V20H92.9059V21ZM93.7639 21C95.7198 21 97.1766 21.5202 98.2027 22.4997L98.8932 21.7763C97.6313 20.5718 95.8987 20 93.7639 20V21ZM98.2056 22.5024C99.2327 23.4673 99.7639 24.774 99.7639 26.48H100.764C100.764 24.546 100.151 22.958 98.8903 21.7736L98.2056 22.5024ZM99.7639 26.48C99.7639 27.6698 99.5039 28.7104 98.9959 29.6152L99.8679 30.1048C100.469 29.0336 100.764 27.8208 100.764 26.48H99.7639ZM98.9978 29.6119C98.4869 30.506 97.7973 31.1944 96.9244 31.6864L97.4154 32.5576C98.4492 31.9749 99.2676 31.1553 99.8661 30.1081L98.9978 29.6119ZM96.9305 31.6831C96.0568 32.1596 95.0743 32.402 93.9719 32.402V33.402C95.2269 33.402 96.3764 33.1244 97.4094 32.5609L96.9305 31.6831ZM93.9719 32.402H93.7639V33.402H93.9719V32.402ZM93.2639 32.902V40H94.2639V32.902H93.2639ZM93.7639 39.5H92.9059V40.5H93.7639V39.5ZM93.4059 40V20.5H92.4059V40H93.4059ZM94.0239 32.648C95.7127 32.648 97.1344 32.1242 98.2452 31.0517L97.5506 30.3323C96.6508 31.2011 95.4898 31.648 94.0239 31.648V32.648ZM98.2484 31.0486C99.3733 29.9431 99.9059 28.4137 99.9059 26.532H98.9059C98.9059 28.2209 98.4332 29.4649 97.5475 30.3354L98.2484 31.0486ZM99.9059 26.532C99.9059 24.7385 99.3999 23.2902 98.3194 22.2687L97.6324 22.9953C98.4586 23.7764 98.9059 24.9281 98.9059 26.532H99.9059ZM98.3262 22.2752C97.2696 21.2382 95.7927 20.754 93.9719 20.754V21.754C95.6178 21.754 96.8102 22.1885 97.6257 22.9888L98.3262 22.2752ZM93.9719 20.754H93.7639V21.754H93.9719V20.754ZM93.2639 21.254V32.148H94.2639V21.254H93.2639ZM93.7639 32.648H94.0239V31.648H93.7639V32.648Z" fill="#34CDFF" mask="url(#path-2-outside-1_663_2619)"/>
</svg>
