<svg width="388" height="149" viewBox="0 0 388 149" fill="none" xmlns="http://www.w3.org/2000/svg">
<rect width="388" height="149" fill="#181818"/>
<mask id="path-2-outside-1_663_2615" maskUnits="userSpaceOnUse" x="88" y="41" width="215" height="68" fill="black">
<rect fill="white" x="88" y="41" width="215" height="68"/>
<path d="M90.5153 45H93.9553C100.195 45 104.995 46.6533 108.355 49.96C111.769 53.2667 113.475 57.9867 113.475 64.12C113.475 67.64 112.622 70.8667 110.915 73.8C109.262 76.7333 106.995 79.0533 104.115 80.76C101.235 82.4133 98.062 83.24 94.5953 83.24H94.0353L114.675 105H111.235L93.0753 85.96V105H90.5153V45ZM94.5153 80.92C97.5553 80.92 100.329 80.1733 102.835 78.68C105.342 77.1867 107.315 75.1867 108.755 72.68C110.195 70.12 110.915 67.2933 110.915 64.2C110.915 58.8133 109.449 54.6533 106.515 51.72C103.635 48.7867 99.502 47.32 94.1153 47.32H93.0753V80.92H94.5153ZM183.562 74.76C183.562 79.7733 182.496 84.4667 180.362 88.84C178.229 93.2133 175.296 96.8933 171.562 99.88L177.722 105.96H174.202L169.562 101.32C164.389 104.84 158.656 106.6 152.362 106.6C146.762 106.6 141.562 105.133 136.762 102.2C131.962 99.2667 128.149 95.3733 125.322 90.52C122.549 85.6133 121.162 80.36 121.162 74.76C121.162 69.2133 122.576 64.04 125.402 59.24C128.229 54.3867 132.042 50.5467 136.842 47.72C141.642 44.84 146.842 43.4 152.442 43.4C158.096 43.4 163.296 44.8133 168.042 47.64C172.789 50.4667 176.549 54.3067 179.322 59.16C182.149 63.96 183.562 69.16 183.562 74.76ZM152.362 104.28C157.909 104.28 163.056 102.707 167.802 99.56L153.642 85.56H157.082L169.802 98.12C173.216 95.3467 175.909 91.9333 177.882 87.88C179.909 83.8267 180.922 79.5067 180.922 74.92C180.922 69.6933 179.642 64.84 177.082 60.36C174.522 55.88 171.056 52.3333 166.682 49.72C162.309 47.0533 157.562 45.72 152.442 45.72C147.269 45.72 142.496 47.0533 138.122 49.72C133.749 52.3333 130.256 55.88 127.642 60.36C125.082 64.84 123.802 69.6933 123.802 74.92C123.802 80.2 125.082 85.1067 127.642 89.64C130.256 94.12 133.749 97.6933 138.122 100.36C142.496 102.973 147.242 104.28 152.362 104.28ZM189.164 102.52H213.804V105H189.164V102.52ZM222.556 45H225.196V105H222.556V45ZM250.81 106.12C244.143 106.12 238.97 103.373 235.29 97.88V93.56C236.73 96.76 238.81 99.2667 241.53 101.08C244.303 102.893 247.61 103.8 251.45 103.8C254.116 103.8 256.57 103.213 258.81 102.04C261.103 100.867 262.916 99.2133 264.25 97.08C265.583 94.9467 266.25 92.4933 266.25 89.72C266.25 87.2133 265.823 85.0533 264.97 83.24C264.116 81.4267 262.703 79.6933 260.73 78.04C258.756 76.3333 255.903 74.3333 252.17 72.04L249.61 70.44C247.263 69 245.37 67.72 243.93 66.6C242.49 65.48 241.236 64.1733 240.17 62.68C238.783 60.6 238.09 58.2 238.09 55.48C238.09 51.8533 239.263 49.0267 241.61 47C243.956 44.9733 246.943 43.96 250.57 43.96C255.476 43.96 259.37 45.7733 262.25 49.4V53.48C261.023 51.24 259.343 49.48 257.21 48.2C255.076 46.92 252.73 46.28 250.17 46.28C247.503 46.28 245.263 47.1067 243.45 48.76C241.636 50.4133 240.73 52.6267 240.73 55.4C240.73 58.12 241.556 60.4667 243.21 62.44C244.916 64.36 247.77 66.4667 251.77 68.76C256.676 71.64 260.49 74.2533 263.21 76.6C265.13 78.36 266.516 80.3067 267.37 82.44C268.276 84.5733 268.73 86.9467 268.73 89.56C268.73 92.8667 267.956 95.7733 266.41 98.28C264.863 100.787 262.73 102.733 260.01 104.12C257.29 105.453 254.223 106.12 250.81 106.12ZM278.326 45H280.966C287.259 45 292.166 46.68 295.686 50.04C299.206 53.3467 300.966 57.8 300.966 63.4C300.966 67.2933 300.113 70.76 298.406 73.8C296.699 76.7867 294.379 79.1067 291.446 80.76C288.513 82.36 285.233 83.16 281.606 83.16H280.966V105H278.326V45ZM281.766 80.84C286.619 80.84 290.593 79.3467 293.686 76.36C296.779 73.32 298.326 69.0533 298.326 63.56C298.326 58.3333 296.859 54.3333 293.926 51.56C291.046 48.7333 286.939 47.32 281.606 47.32H280.966V80.84H281.766Z"/>
</mask>
<path d="M90.5153 45H93.9553C100.195 45 104.995 46.6533 108.355 49.96C111.769 53.2667 113.475 57.9867 113.475 64.12C113.475 67.64 112.622 70.8667 110.915 73.8C109.262 76.7333 106.995 79.0533 104.115 80.76C101.235 82.4133 98.062 83.24 94.5953 83.24H94.0353L114.675 105H111.235L93.0753 85.96V105H90.5153V45ZM94.5153 80.92C97.5553 80.92 100.329 80.1733 102.835 78.68C105.342 77.1867 107.315 75.1867 108.755 72.68C110.195 70.12 110.915 67.2933 110.915 64.2C110.915 58.8133 109.449 54.6533 106.515 51.72C103.635 48.7867 99.502 47.32 94.1153 47.32H93.0753V80.92H94.5153ZM183.562 74.76C183.562 79.7733 182.496 84.4667 180.362 88.84C178.229 93.2133 175.296 96.8933 171.562 99.88L177.722 105.96H174.202L169.562 101.32C164.389 104.84 158.656 106.6 152.362 106.6C146.762 106.6 141.562 105.133 136.762 102.2C131.962 99.2667 128.149 95.3733 125.322 90.52C122.549 85.6133 121.162 80.36 121.162 74.76C121.162 69.2133 122.576 64.04 125.402 59.24C128.229 54.3867 132.042 50.5467 136.842 47.72C141.642 44.84 146.842 43.4 152.442 43.4C158.096 43.4 163.296 44.8133 168.042 47.64C172.789 50.4667 176.549 54.3067 179.322 59.16C182.149 63.96 183.562 69.16 183.562 74.76ZM152.362 104.28C157.909 104.28 163.056 102.707 167.802 99.56L153.642 85.56H157.082L169.802 98.12C173.216 95.3467 175.909 91.9333 177.882 87.88C179.909 83.8267 180.922 79.5067 180.922 74.92C180.922 69.6933 179.642 64.84 177.082 60.36C174.522 55.88 171.056 52.3333 166.682 49.72C162.309 47.0533 157.562 45.72 152.442 45.72C147.269 45.72 142.496 47.0533 138.122 49.72C133.749 52.3333 130.256 55.88 127.642 60.36C125.082 64.84 123.802 69.6933 123.802 74.92C123.802 80.2 125.082 85.1067 127.642 89.64C130.256 94.12 133.749 97.6933 138.122 100.36C142.496 102.973 147.242 104.28 152.362 104.28ZM189.164 102.52H213.804V105H189.164V102.52ZM222.556 45H225.196V105H222.556V45ZM250.81 106.12C244.143 106.12 238.97 103.373 235.29 97.88V93.56C236.73 96.76 238.81 99.2667 241.53 101.08C244.303 102.893 247.61 103.8 251.45 103.8C254.116 103.8 256.57 103.213 258.81 102.04C261.103 100.867 262.916 99.2133 264.25 97.08C265.583 94.9467 266.25 92.4933 266.25 89.72C266.25 87.2133 265.823 85.0533 264.97 83.24C264.116 81.4267 262.703 79.6933 260.73 78.04C258.756 76.3333 255.903 74.3333 252.17 72.04L249.61 70.44C247.263 69 245.37 67.72 243.93 66.6C242.49 65.48 241.236 64.1733 240.17 62.68C238.783 60.6 238.09 58.2 238.09 55.48C238.09 51.8533 239.263 49.0267 241.61 47C243.956 44.9733 246.943 43.96 250.57 43.96C255.476 43.96 259.37 45.7733 262.25 49.4V53.48C261.023 51.24 259.343 49.48 257.21 48.2C255.076 46.92 252.73 46.28 250.17 46.28C247.503 46.28 245.263 47.1067 243.45 48.76C241.636 50.4133 240.73 52.6267 240.73 55.4C240.73 58.12 241.556 60.4667 243.21 62.44C244.916 64.36 247.77 66.4667 251.77 68.76C256.676 71.64 260.49 74.2533 263.21 76.6C265.13 78.36 266.516 80.3067 267.37 82.44C268.276 84.5733 268.73 86.9467 268.73 89.56C268.73 92.8667 267.956 95.7733 266.41 98.28C264.863 100.787 262.73 102.733 260.01 104.12C257.29 105.453 254.223 106.12 250.81 106.12ZM278.326 45H280.966C287.259 45 292.166 46.68 295.686 50.04C299.206 53.3467 300.966 57.8 300.966 63.4C300.966 67.2933 300.113 70.76 298.406 73.8C296.699 76.7867 294.379 79.1067 291.446 80.76C288.513 82.36 285.233 83.16 281.606 83.16H280.966V105H278.326V45ZM281.766 80.84C286.619 80.84 290.593 79.3467 293.686 76.36C296.779 73.32 298.326 69.0533 298.326 63.56C298.326 58.3333 296.859 54.3333 293.926 51.56C291.046 48.7333 286.939 47.32 281.606 47.32H280.966V80.84H281.766Z" fill="#34CDFF"/>
<path d="M90.5153 45V43H88.5153V45H90.5153ZM108.355 49.96L106.952 51.3855L106.958 51.391L106.964 51.3965L108.355 49.96ZM110.915 73.8L109.187 72.7942L109.18 72.806L109.173 72.818L110.915 73.8ZM104.115 80.76L105.111 82.4945L105.123 82.4876L105.135 82.4806L104.115 80.76ZM94.0353 83.24V81.24H89.3817L92.5842 84.6164L94.0353 83.24ZM114.675 105V107H119.329L116.126 103.624L114.675 105ZM111.235 105L109.788 106.38L110.379 107H111.235V105ZM93.0753 85.96L94.5226 84.5796L91.0753 80.9653V85.96H93.0753ZM93.0753 105V107H95.0753V105H93.0753ZM90.5153 105H88.5153V107H90.5153V105ZM102.835 78.68L103.859 80.3982L103.859 80.3982L102.835 78.68ZM108.755 72.68L110.49 73.6762L110.494 73.6684L110.498 73.6605L108.755 72.68ZM106.515 51.72L105.088 53.1212L105.095 53.1277L105.101 53.1342L106.515 51.72ZM93.0753 47.32V45.32H91.0753V47.32H93.0753ZM93.0753 80.92H91.0753V82.92H93.0753V80.92ZM90.5153 47H93.9553V43H90.5153V47ZM93.9553 47C99.846 47 104.075 48.5541 106.952 51.3855L109.758 48.5345C105.915 44.7526 100.545 43 93.9553 43V47ZM106.964 51.3965C109.884 54.2252 111.475 58.3629 111.475 64.12H115.475C115.475 57.6105 113.654 52.3082 109.747 48.5235L106.964 51.3965ZM111.475 64.12C111.475 67.3004 110.709 70.1779 109.187 72.7942L112.644 74.8058C114.535 71.5554 115.475 67.9796 115.475 64.12H111.475ZM109.173 72.818C107.691 75.4479 105.672 77.5125 103.096 79.0394L105.135 82.4806C108.318 80.5942 110.833 78.0187 112.658 74.782L109.173 72.818ZM103.12 79.0255C100.556 80.4971 97.7286 81.24 94.5953 81.24V85.24C98.3954 85.24 101.914 84.3296 105.111 82.4945L103.12 79.0255ZM94.5953 81.24H94.0353V85.24H94.5953V81.24ZM92.5842 84.6164L113.224 106.376L116.126 103.624L95.4864 81.8636L92.5842 84.6164ZM114.675 103H111.235V107H114.675V103ZM112.683 103.62L94.5226 84.5796L91.6281 87.3404L109.788 106.38L112.683 103.62ZM91.0753 85.96V105H95.0753V85.96H91.0753ZM93.0753 103H90.5153V107H93.0753V103ZM92.5153 105V45H88.5153V105H92.5153ZM94.5153 82.92C97.8999 82.92 101.029 82.0839 103.859 80.3982L101.812 76.9618C99.6279 78.2628 97.2107 78.92 94.5153 78.92V82.92ZM103.859 80.3982C106.658 78.7309 108.877 76.4835 110.49 73.6762L107.021 71.6837C105.754 73.8899 104.026 75.6424 101.812 76.9618L103.859 80.3982ZM110.498 73.6605C112.116 70.7851 112.915 67.6179 112.915 64.2H108.915C108.915 66.9688 108.275 69.4549 107.012 71.6995L110.498 73.6605ZM112.915 64.2C112.915 58.448 111.34 53.7167 107.93 50.3058L105.101 53.1342C107.557 55.59 108.915 59.1787 108.915 64.2H112.915ZM107.942 50.3188C104.58 46.8941 99.8651 45.32 94.1153 45.32V49.32C99.1389 49.32 102.691 50.6792 105.088 53.1212L107.942 50.3188ZM94.1153 45.32H93.0753V49.32H94.1153V45.32ZM91.0753 47.32V80.92H95.0753V47.32H91.0753ZM93.0753 82.92H94.5153V78.92H93.0753V82.92ZM171.562 99.88L170.313 98.3183L168.556 99.7234L170.157 101.303L171.562 99.88ZM177.722 105.96V107.96H182.596L179.127 104.537L177.722 105.96ZM174.202 105.96L172.788 107.374L173.374 107.96H174.202V105.96ZM169.562 101.32L170.976 99.9058L169.806 98.7352L168.437 99.6665L169.562 101.32ZM136.762 102.2L135.719 103.907L136.762 102.2ZM125.322 90.52L123.581 91.5041L123.587 91.5154L123.594 91.5266L125.322 90.52ZM125.402 59.24L127.126 60.2549L127.13 60.2466L125.402 59.24ZM136.842 47.72L137.857 49.4434L137.864 49.4392L137.871 49.435L136.842 47.72ZM168.042 47.64L167.019 49.3584L167.019 49.3584L168.042 47.64ZM179.322 59.16L177.586 60.1523L177.592 60.1636L177.599 60.1749L179.322 59.16ZM167.802 99.56L168.907 101.227L170.958 99.8676L169.208 98.1378L167.802 99.56ZM153.642 85.56V83.56H148.775L152.236 86.9822L153.642 85.56ZM157.082 85.56L158.487 84.1369L157.903 83.56H157.082V85.56ZM169.802 98.12L168.397 99.5431L169.672 100.802L171.063 99.6722L169.802 98.12ZM177.882 87.88L176.093 86.9856L176.089 86.995L176.084 87.0046L177.882 87.88ZM177.082 60.36L175.346 61.3523L175.346 61.3523L177.082 60.36ZM166.682 49.72L165.641 51.4276L165.649 51.4322L165.656 51.4368L166.682 49.72ZM138.122 49.72L139.148 51.4368L139.156 51.4322L139.163 51.4276L138.122 49.72ZM127.642 60.36L125.915 59.3523L125.91 59.36L125.906 59.3677L127.642 60.36ZM127.642 89.64L125.901 90.6234L125.908 90.6356L125.915 90.6477L127.642 89.64ZM138.122 100.36L137.081 102.068L137.089 102.072L137.096 102.077L138.122 100.36ZM181.562 74.76C181.562 79.479 180.561 83.8713 178.565 87.9632L182.16 89.7168C184.43 85.062 185.562 80.0677 185.562 74.76H181.562ZM178.565 87.9632C176.559 92.0753 173.811 95.5199 170.313 98.3183L172.812 101.442C176.78 98.2668 179.899 94.3513 182.16 89.7168L178.565 87.9632ZM170.157 101.303L176.317 107.383L179.127 104.537L172.967 98.4566L170.157 101.303ZM177.722 103.96H174.202V107.96H177.722V103.96ZM175.616 104.546L170.976 99.9058L168.148 102.734L172.788 107.374L175.616 104.546ZM168.437 99.6665C163.598 102.959 158.257 104.6 152.362 104.6V108.6C159.054 108.6 165.18 106.721 170.687 102.974L168.437 99.6665ZM152.362 104.6C147.132 104.6 142.293 103.236 137.805 100.493L135.719 103.907C140.832 107.031 146.392 108.6 152.362 108.6V104.6ZM137.805 100.493C133.288 97.7327 129.71 94.0798 127.05 89.5134L123.594 91.5266C126.588 96.6669 130.637 100.801 135.719 103.907L137.805 100.493ZM127.063 89.5359C124.459 84.9274 123.162 80.0128 123.162 74.76H119.162C119.162 80.7072 120.639 86.2993 123.581 91.5041L127.063 89.5359ZM123.162 74.76C123.162 69.5719 124.479 64.7487 127.126 60.2549L123.679 58.2251C120.672 63.3313 119.162 68.8548 119.162 74.76H123.162ZM127.13 60.2466C129.786 55.6868 133.355 52.0947 137.857 49.4434L135.827 45.9966C130.729 48.9987 126.672 53.0866 123.674 58.2334L127.13 60.2466ZM137.871 49.435C142.36 46.7416 147.205 45.4 152.442 45.4V41.4C146.48 41.4 140.924 42.9384 135.813 46.005L137.871 49.435ZM152.442 45.4C157.744 45.4 162.589 46.7205 167.019 49.3584L169.065 45.9216C164.002 42.9062 158.447 41.4 152.442 41.4V45.4ZM167.019 49.3584C171.466 52.0064 174.981 55.5947 177.586 60.1523L181.059 58.1677C178.116 53.0186 174.112 48.9269 169.065 45.9216L167.019 49.3584ZM177.599 60.1749C180.243 64.6656 181.562 69.5149 181.562 74.76H185.562C185.562 68.8051 184.054 63.2544 181.046 58.1451L177.599 60.1749ZM152.362 106.28C158.313 106.28 163.842 104.585 168.907 101.227L166.697 97.893C162.269 100.829 157.505 102.28 152.362 102.28V106.28ZM169.208 98.1378L155.048 84.1378L152.236 86.9822L166.396 100.982L169.208 98.1378ZM153.642 87.56H157.082V83.56H153.642V87.56ZM155.677 86.9831L168.397 99.5431L171.207 96.6969L158.487 84.1369L155.677 86.9831ZM171.063 99.6722C174.709 96.7104 177.583 93.064 179.68 88.7554L176.084 87.0046C174.235 90.8026 171.722 93.9829 168.541 96.5678L171.063 99.6722ZM179.671 88.7744C181.838 84.4399 182.922 79.8132 182.922 74.92H178.922C178.922 79.2001 177.979 83.2134 176.093 86.9856L179.671 88.7744ZM182.922 74.92C182.922 69.35 181.554 64.154 178.819 59.3677L175.346 61.3523C177.731 65.526 178.922 70.0367 178.922 74.92H182.922ZM178.819 59.3677C176.09 54.5931 172.381 50.7953 167.708 48.0032L165.656 51.4368C169.73 53.8714 172.954 57.1669 175.346 61.3523L178.819 59.3677ZM167.723 48.0124C163.037 45.1546 157.93 43.72 152.442 43.72V47.72C157.195 47.72 161.581 48.9521 165.641 51.4276L167.723 48.0124ZM152.442 43.72C146.905 43.72 141.771 45.1525 137.081 48.0124L139.163 51.4276C143.22 48.9542 147.632 47.72 152.442 47.72V43.72ZM137.096 48.0032C132.428 50.793 128.695 54.5859 125.915 59.3523L129.37 61.3677C131.816 57.1741 135.07 53.8736 139.148 51.4368L137.096 48.0032ZM125.906 59.3677C123.171 64.154 121.802 69.35 121.802 74.92H125.802C125.802 70.0367 126.994 65.526 129.379 61.3523L125.906 59.3677ZM121.802 74.92C121.802 80.5395 123.169 85.7856 125.901 90.6234L129.384 88.6566C126.996 84.4277 125.802 79.8605 125.802 74.92H121.802ZM125.915 90.6477C128.693 95.4106 132.421 99.2259 137.081 102.068L139.163 98.6524C135.077 96.1607 131.818 92.8294 129.37 88.6323L125.915 90.6477ZM137.096 102.077C141.781 104.876 146.883 106.28 152.362 106.28V102.28C147.602 102.28 143.21 101.07 139.148 98.6432L137.096 102.077ZM189.164 102.52V100.52H187.164V102.52H189.164ZM213.804 102.52H215.804V100.52H213.804V102.52ZM213.804 105V107H215.804V105H213.804ZM189.164 105H187.164V107H189.164V105ZM189.164 104.52H213.804V100.52H189.164V104.52ZM211.804 102.52V105H215.804V102.52H211.804ZM213.804 103H189.164V107H213.804V103ZM191.164 105V102.52H187.164V105H191.164ZM222.556 45V43H220.556V45H222.556ZM225.196 45H227.196V43H225.196V45ZM225.196 105V107H227.196V105H225.196ZM222.556 105H220.556V107H222.556V105ZM222.556 47H225.196V43H222.556V47ZM223.196 45V105H227.196V45H223.196ZM225.196 103H222.556V107H225.196V103ZM224.556 105V45H220.556V105H224.556ZM235.29 97.88H233.29V98.488L233.628 98.9931L235.29 97.88ZM235.29 93.56L237.114 92.7393L233.29 93.56H235.29ZM241.53 101.08L240.42 102.744L240.428 102.749L240.435 102.754L241.53 101.08ZM258.81 102.04L257.899 100.26L257.89 100.264L257.882 100.268L258.81 102.04ZM264.25 97.08L265.946 98.14L265.946 98.14L264.25 97.08ZM264.97 83.24L263.16 84.0916L264.97 83.24ZM260.73 78.04L259.421 79.5527L259.433 79.563L259.445 79.573L260.73 78.04ZM252.17 72.04L251.11 73.736L251.116 73.7401L251.123 73.7441L252.17 72.04ZM249.61 70.44L250.67 68.744L250.663 68.7396L250.656 68.7354L249.61 70.44ZM243.93 66.6L242.702 68.1787L242.702 68.1787L243.93 66.6ZM240.17 62.68L238.506 63.7894L238.523 63.8162L238.542 63.8425L240.17 62.68ZM262.25 49.4H264.25V48.7025L263.816 48.1562L262.25 49.4ZM262.25 53.48L260.495 54.4406L264.25 53.48H262.25ZM243.45 48.76L244.797 50.2379L244.797 50.2379L243.45 48.76ZM243.21 62.44L241.677 63.7244L241.695 63.7469L241.715 63.7687L243.21 62.44ZM251.77 68.76L252.782 67.0352L252.773 67.03L252.764 67.0249L251.77 68.76ZM263.21 76.6L264.561 75.1257L264.539 75.1053L264.516 75.0857L263.21 76.6ZM267.37 82.44L265.513 83.1828L265.521 83.2026L265.529 83.2223L267.37 82.44ZM266.41 98.28L268.112 99.3302L268.112 99.3302L266.41 98.28ZM260.01 104.12L260.89 105.916L260.904 105.909L260.918 105.902L260.01 104.12ZM250.81 104.12C244.803 104.12 240.256 101.7 236.951 96.7669L233.628 98.9931C237.683 105.046 243.483 108.12 250.81 108.12V104.12ZM237.29 97.88V93.56H233.29V97.88H237.29ZM233.466 94.3807C235.048 97.8972 237.365 100.707 240.42 102.744L242.639 99.4159C240.255 97.8264 238.411 95.6228 237.114 92.7393L233.466 94.3807ZM240.435 102.754C243.583 104.812 247.284 105.8 251.45 105.8V101.8C247.935 101.8 245.023 100.974 242.624 99.4061L240.435 102.754ZM251.45 105.8C254.421 105.8 257.196 105.143 259.738 103.812L257.882 100.268C255.944 101.283 253.811 101.8 251.45 101.8V105.8ZM259.721 103.82C262.328 102.487 264.416 100.588 265.946 98.14L262.554 96.02C261.417 97.839 259.878 99.2468 257.899 100.26L259.721 103.82ZM265.946 98.14C267.498 95.6567 268.25 92.8285 268.25 89.72H264.25C264.25 92.1582 263.668 94.2366 262.554 96.02L265.946 98.14ZM268.25 89.72C268.25 86.9907 267.785 84.5263 266.779 82.3884L263.16 84.0916C263.861 85.5804 264.25 87.4359 264.25 89.72H268.25ZM266.779 82.3884C265.773 80.249 264.149 78.2956 262.014 76.507L259.445 79.573C261.257 81.0911 262.46 82.6044 263.16 84.0916L266.779 82.3884ZM262.038 76.5273C259.946 74.7183 256.989 72.6533 253.217 70.3358L251.123 73.7441C254.817 76.0134 257.566 77.9483 259.421 79.5527L262.038 76.5273ZM253.23 70.344L250.67 68.744L248.55 72.136L251.11 73.736L253.23 70.344ZM250.656 68.7354C248.344 67.3167 246.518 66.0794 245.158 65.0213L242.702 68.1787C244.221 69.3606 246.182 70.6833 248.564 72.1446L250.656 68.7354ZM245.158 65.0213C243.871 64.0207 242.752 62.8545 241.797 61.5175L238.542 63.8425C239.721 65.4922 241.108 66.9393 242.702 68.1787L245.158 65.0213ZM241.834 61.5706C240.685 59.8481 240.09 57.8415 240.09 55.48H236.09C236.09 58.5585 236.881 61.3519 238.506 63.7894L241.834 61.5706ZM240.09 55.48C240.09 52.3256 241.086 50.0945 242.917 48.5136L240.302 45.4864C237.44 47.9588 236.09 51.3811 236.09 55.48H240.09ZM242.917 48.5136C244.84 46.8527 247.337 45.96 250.57 45.96V41.96C246.549 41.96 243.073 43.094 240.302 45.4864L242.917 48.5136ZM250.57 45.96C254.908 45.96 258.208 47.5267 260.683 50.6438L263.816 48.1562C260.531 44.0199 256.045 41.96 250.57 41.96V45.96ZM260.25 49.4V53.48H264.25V49.4H260.25ZM264.004 52.5194C262.611 49.9767 260.685 47.9527 258.239 46.485L256.181 49.915C258.001 51.0073 259.435 52.5033 260.495 54.4406L264.004 52.5194ZM258.239 46.485C255.785 45.0129 253.081 44.28 250.17 44.28V48.28C252.378 48.28 254.368 48.8271 256.181 49.915L258.239 46.485ZM250.17 44.28C247.051 44.28 244.317 45.2625 242.102 47.2821L244.797 50.2379C246.209 48.9508 247.955 48.28 250.17 48.28V44.28ZM242.102 47.2821C239.817 49.3657 238.73 52.1452 238.73 55.4H242.73C242.73 53.1081 243.456 51.4609 244.797 50.2379L242.102 47.2821ZM238.73 55.4C238.73 58.5609 239.704 61.3696 241.677 63.7244L244.743 61.1556C243.409 59.5637 242.73 57.6791 242.73 55.4H238.73ZM241.715 63.7687C243.637 65.9306 246.712 68.1654 250.775 70.4951L252.764 67.0249C248.828 64.768 246.196 62.7894 244.705 61.1113L241.715 63.7687ZM250.757 70.4848C255.612 73.3346 259.312 75.8784 261.903 78.1143L264.516 75.0857C261.668 72.6283 257.74 69.9454 252.782 67.0352L250.757 70.4848ZM261.858 78.0743C263.587 79.6587 264.785 81.3632 265.513 83.1828L269.227 81.6972C268.248 79.2501 266.673 77.0613 264.561 75.1257L261.858 78.0743ZM265.529 83.2223C266.318 85.0786 266.73 87.1813 266.73 89.56H270.73C270.73 86.712 270.235 84.0681 269.21 81.6577L265.529 83.2223ZM266.73 89.56C266.73 92.5425 266.036 95.0763 264.708 97.2298L268.112 99.3302C269.876 96.4703 270.73 93.1909 270.73 89.56H266.73ZM264.708 97.2298C263.361 99.4127 261.507 101.112 259.101 102.338L260.918 105.902C263.952 104.355 266.365 102.161 268.112 99.3302L264.708 97.2298ZM259.129 102.324C256.716 103.507 253.957 104.12 250.81 104.12V108.12C254.489 108.12 257.863 107.4 260.89 105.916L259.129 102.324ZM278.326 45V43H276.326V45H278.326ZM295.686 50.04L294.305 51.4867L294.311 51.4922L294.317 51.4977L295.686 50.04ZM298.406 73.8L300.142 74.7923L300.146 74.7857L300.15 74.7791L298.406 73.8ZM291.446 80.76L292.404 82.5158L292.416 82.5091L292.428 82.5023L291.446 80.76ZM280.966 83.16V81.16H278.966V83.16H280.966ZM280.966 105V107H282.966V105H280.966ZM278.326 105H276.326V107H278.326V105ZM293.686 76.36L295.075 77.7988L295.081 77.7927L295.088 77.7865L293.686 76.36ZM293.926 51.56L292.525 52.9874L292.538 53.0005L292.552 53.0133L293.926 51.56ZM280.966 47.32V45.32H278.966V47.32H280.966ZM280.966 80.84H278.966V82.84H280.966V80.84ZM278.326 47H280.966V43H278.326V47ZM280.966 47C286.901 47 291.257 48.5769 294.305 51.4867L297.067 48.5933C293.075 44.7831 287.617 43 280.966 43V47ZM294.317 51.4977C297.369 54.3651 298.966 58.2559 298.966 63.4H302.966C302.966 57.3441 301.043 52.3282 297.055 48.5823L294.317 51.4977ZM298.966 63.4C298.966 66.9913 298.182 70.1136 296.662 72.8209L300.15 74.7791C302.043 71.4063 302.966 67.5954 302.966 63.4H298.966ZM296.669 72.8077C295.138 75.488 293.076 77.5457 290.464 79.0177L292.428 82.5023C295.683 80.6677 298.261 78.0854 300.142 74.7923L296.669 72.8077ZM290.488 79.0042C287.873 80.4305 284.927 81.16 281.606 81.16V85.16C285.538 85.16 289.152 84.2895 292.404 82.5158L290.488 79.0042ZM281.606 81.16H280.966V85.16H281.606V81.16ZM278.966 83.16V105H282.966V83.16H278.966ZM280.966 103H278.326V107H280.966V103ZM280.326 105V45H276.326V105H280.326ZM281.766 82.84C287.065 82.84 291.56 81.1928 295.075 77.7988L292.297 74.9212C289.625 77.5006 286.173 78.84 281.766 78.84V82.84ZM295.088 77.7865C298.659 74.2765 300.326 69.439 300.326 63.56H296.326C296.326 68.6677 294.899 72.3635 292.284 74.9335L295.088 77.7865ZM300.326 63.56C300.326 57.9541 298.742 53.3609 295.3 50.1067L292.552 53.0133C294.977 55.3057 296.326 58.7125 296.326 63.56H300.326ZM295.327 50.1326C291.965 46.8328 287.289 45.32 281.606 45.32V49.32C286.589 49.32 290.127 50.6339 292.525 52.9874L295.327 50.1326ZM281.606 45.32H280.966V49.32H281.606V45.32ZM278.966 47.32V80.84H282.966V47.32H278.966ZM280.966 82.84H281.766V78.84H280.966V82.84Z" fill="#34CDFF" mask="url(#path-2-outside-1_663_2615)"/>
</svg>
